G04*
G04 #@! TF.GenerationSoftware,Altium Limited,Altium Designer,22.3.1 (43)*
G04*
G04 Layer_Color=16711935*
%FSLAX23Y23*%
%MOIN*%
G70*
G04*
G04 #@! TF.SameCoordinates,09264033-3090-4D32-8FBF-651452AD9D60*
G04*
G04*
G04 #@! TF.FilePolarity,Negative*
G04*
G01*
G75*
%ADD64C,0.021*%
%ADD65R,0.076X0.076*%
%ADD66C,0.076*%
%ADD67C,0.058*%
%ADD68C,0.028*%
D64*
X2998Y1109D02*
D03*
Y881D02*
D03*
X999Y1808D02*
D03*
X771D02*
D03*
D65*
X1725Y260D02*
D03*
D66*
Y360D02*
D03*
D67*
X2870Y815D02*
D03*
X2855Y1215D02*
D03*
X1435Y295D02*
D03*
X975Y300D02*
D03*
X925Y370D02*
D03*
X490Y480D02*
D03*
X725Y610D02*
D03*
X625Y725D02*
D03*
X770Y1050D02*
D03*
X855D02*
D03*
X1085Y1695D02*
D03*
X1725Y125D02*
D03*
X1845Y1035D02*
D03*
X710Y1690D02*
D03*
X1250Y1655D02*
D03*
D68*
X885Y645D02*
D03*
X1085Y700D02*
D03*
X1110Y780D02*
D03*
X2190Y960D02*
D03*
X2245Y820D02*
D03*
X2175Y905D02*
D03*
X2040Y915D02*
D03*
X2630Y1305D02*
D03*
X2535Y1385D02*
D03*
X2610Y1495D02*
D03*
X2615Y1390D02*
D03*
X2530Y1495D02*
D03*
X2535Y1160D02*
D03*
X1930Y1095D02*
D03*
X2425Y1160D02*
D03*
X2430Y1230D02*
D03*
X2435Y1305D02*
D03*
X2450Y1495D02*
D03*
Y1395D02*
D03*
X2530Y1240D02*
D03*
X2635Y1235D02*
D03*
X2645Y1150D02*
D03*
X2520Y1300D02*
D03*
M02*
