G04*
G04 #@! TF.GenerationSoftware,Altium Limited,Altium Designer,22.3.1 (43)*
G04*
G04 Layer_Physical_Order=1*
G04 Layer_Color=255*
%FSLAX23Y23*%
%MOIN*%
G70*
G04*
G04 #@! TF.SameCoordinates,09264033-3090-4D32-8FBF-651452AD9D60*
G04*
G04*
G04 #@! TF.FilePolarity,Positive*
G04*
G01*
G75*
%ADD13C,0.010*%
%ADD14R,0.079X0.086*%
%ADD15R,0.045X0.012*%
%ADD16R,0.006X0.038*%
%ADD17R,0.017X0.063*%
%ADD18R,0.010X0.024*%
%ADD19R,0.024X0.010*%
%ADD20R,0.017X0.120*%
%ADD21R,0.017X0.049*%
%ADD22R,0.012X0.045*%
%ADD23R,0.086X0.079*%
%ADD24R,0.069X0.069*%
%ADD25R,0.012X0.031*%
%ADD26R,0.031X0.012*%
%ADD27R,0.057X0.039*%
%ADD28R,0.055X0.039*%
%ADD29R,0.039X0.055*%
%ADD30R,0.041X0.071*%
%ADD31R,0.071X0.041*%
%ADD32R,0.051X0.024*%
%ADD33R,0.073X0.134*%
%ADD34R,0.055X0.059*%
%ADD35R,0.041X0.041*%
%ADD36R,0.076X0.030*%
%ADD37R,0.072X0.040*%
%ADD38R,0.043X0.053*%
%ADD39R,0.053X0.043*%
%ADD69C,0.055*%
%ADD70C,0.045*%
%ADD71C,0.040*%
%ADD72C,0.020*%
%ADD73C,0.050*%
%ADD74C,0.060*%
%ADD75C,0.013*%
%ADD76R,0.068X0.068*%
%ADD77C,0.068*%
%ADD78C,0.050*%
%ADD79C,0.020*%
G36*
X1020Y1755D02*
X1035Y1740D01*
X1140D01*
X1150Y1730D01*
Y1660D01*
X1045D01*
X1035Y1670D01*
Y1730D01*
X1020Y1745D01*
X1000D01*
Y1790D01*
X1002D01*
X1003Y1790D01*
X1020D01*
Y1755D01*
D02*
G37*
G36*
X768Y1790D02*
X770D01*
Y1660D01*
X760Y1650D01*
X675D01*
X665Y1660D01*
Y1720D01*
X675Y1730D01*
X745D01*
Y1790D01*
X767D01*
X768Y1790D01*
D02*
G37*
G36*
X800Y1735D02*
X805Y1730D01*
X870D01*
X875Y1725D01*
Y1580D01*
X855Y1560D01*
X800D01*
X780Y1580D01*
Y1785D01*
X800D01*
Y1735D01*
D02*
G37*
G36*
X990Y1640D02*
X1140D01*
X1180Y1600D01*
Y1465D01*
X1140Y1425D01*
X950D01*
X915Y1460D01*
Y1600D01*
X950Y1635D01*
Y1715D01*
X970Y1735D01*
Y1785D01*
X990D01*
Y1640D01*
D02*
G37*
G36*
X1450Y1390D02*
Y1275D01*
X1550D01*
X1555Y1270D01*
Y1205D01*
X1235D01*
X1195Y1245D01*
Y1420D01*
X1420D01*
X1450Y1390D01*
D02*
G37*
G36*
X2905Y1250D02*
Y1150D01*
X2920Y1135D01*
X2975D01*
Y1110D01*
X2835D01*
X2800Y1145D01*
Y1255D01*
X2815Y1270D01*
X2885D01*
X2905Y1250D01*
D02*
G37*
G36*
X2980Y1080D02*
X2975Y1075D01*
X2920D01*
Y910D01*
X2980D01*
Y890D01*
X2320D01*
X2240Y970D01*
Y1000D01*
X2240D01*
Y1065D01*
X2885D01*
X2923Y1103D01*
X2928Y1104D01*
X2928Y1104D01*
Y1104D01*
X2928Y1104D01*
X2980D01*
Y1080D01*
D02*
G37*
G36*
X2075Y1445D02*
Y1185D01*
X2105Y1155D01*
X2195D01*
X2210Y1140D01*
Y1136D01*
Y1135D01*
X2210Y1134D01*
Y1101D01*
X2210Y1101D01*
Y1100D01*
X2195D01*
Y1125D01*
X1955D01*
X1910Y1170D01*
X1600D01*
X1595Y1175D01*
Y1445D01*
X1675Y1525D01*
X1995D01*
X2075Y1445D01*
D02*
G37*
G36*
X2710Y1525D02*
Y1115D01*
X2675Y1080D01*
X2240D01*
Y1125D01*
D01*
X2315D01*
X2345Y1155D01*
Y1510D01*
X2410Y1575D01*
X2660D01*
X2710Y1525D01*
D02*
G37*
G36*
X2295Y1525D02*
X2330Y1490D01*
Y1225D01*
X2255Y1150D01*
X2235D01*
Y1125D01*
X2235Y1125D01*
Y1080D01*
X2235Y1080D01*
Y1065D01*
X2235Y1065D01*
Y1040D01*
X2228D01*
X2223Y1041D01*
Y1089D01*
X2215D01*
Y1099D01*
X2215Y1100D01*
Y1101D01*
X2215Y1101D01*
Y1134D01*
X2215Y1135D01*
Y1150D01*
X2175Y1190D01*
Y1480D01*
X2220Y1525D01*
X2295Y1525D01*
D02*
G37*
G36*
X2135Y1035D02*
Y895D01*
X2100Y860D01*
X2005D01*
X1970Y895D01*
Y1030D01*
X1995Y1055D01*
X2115D01*
X2135Y1035D01*
D02*
G37*
G36*
X1465Y1124D02*
Y960D01*
X1355Y850D01*
X1150D01*
Y855D01*
X1125Y880D01*
Y1120D01*
X1185Y1180D01*
X1400D01*
X1465Y1124D01*
D02*
G37*
G36*
X1095Y1185D02*
Y935D01*
X1020Y860D01*
Y805D01*
X986D01*
Y840D01*
X985D01*
Y845D01*
X1010Y870D01*
Y960D01*
X1000Y970D01*
Y980D01*
X925D01*
X910Y995D01*
Y1170D01*
X945Y1205D01*
X1075D01*
X1095Y1185D01*
D02*
G37*
G36*
X930Y840D02*
X955D01*
X960Y835D01*
Y805D01*
X935D01*
X935Y805D01*
X935Y805D01*
X901D01*
X900Y805D01*
X899D01*
X899Y805D01*
X835D01*
X835Y805D01*
X825Y815D01*
X825Y865D01*
X835Y875D01*
X895D01*
X930Y840D01*
D02*
G37*
G36*
X670Y860D02*
X795D01*
X805Y850D01*
Y800D01*
X835D01*
X835Y800D01*
X835Y800D01*
X899D01*
X899Y800D01*
X900D01*
X901Y800D01*
X935D01*
X935Y800D01*
X940Y795D01*
Y785D01*
X936Y781D01*
X905D01*
Y781D01*
X905Y780D01*
X535Y785D01*
X530D01*
X525Y790D01*
Y875D01*
X545Y895D01*
X635Y895D01*
X670Y860D01*
D02*
G37*
G36*
X2975D02*
X2925D01*
Y785D01*
X2885Y745D01*
X2855D01*
X2820Y780D01*
Y850D01*
X2850Y880D01*
X2975D01*
Y860D01*
D02*
G37*
G36*
X1255Y780D02*
Y740D01*
X1235Y720D01*
X1135D01*
X1125Y730D01*
Y750D01*
X1115Y760D01*
X1106D01*
X1104Y760D01*
X1070D01*
Y765D01*
X1044D01*
Y775D01*
X1070D01*
Y785D01*
X1044D01*
Y795D01*
X1070D01*
Y795D01*
X1240D01*
X1255Y780D01*
D02*
G37*
%LPC*%
G36*
X1274Y1091D02*
X1270Y1090D01*
X1267Y1088D01*
X1265Y1084D01*
X1264Y1081D01*
Y1050D01*
X1265Y1046D01*
X1267Y1043D01*
X1270Y1041D01*
X1274Y1040D01*
X1278Y1041D01*
X1281Y1043D01*
X1284Y1046D01*
X1284Y1050D01*
Y1081D01*
X1284Y1084D01*
X1281Y1088D01*
X1278Y1090D01*
X1274Y1091D01*
D02*
G37*
G36*
X1046Y1070D02*
X1042Y1069D01*
X1039Y1067D01*
X1036Y1064D01*
X1036Y1060D01*
X1036Y1056D01*
X1039Y1053D01*
X1049Y1043D01*
X1052Y1041D01*
X1056Y1040D01*
X1060Y1041D01*
X1063Y1043D01*
X1065Y1046D01*
X1066Y1050D01*
X1065Y1054D01*
X1063Y1057D01*
X1053Y1067D01*
X1050Y1069D01*
X1046Y1070D01*
D02*
G37*
G36*
X1233Y783D02*
X1190D01*
Y763D01*
X1233D01*
Y783D01*
D02*
G37*
G36*
X1180D02*
X1137D01*
Y763D01*
X1180D01*
Y783D01*
D02*
G37*
G36*
X1233Y753D02*
X1190D01*
Y733D01*
X1233D01*
Y753D01*
D02*
G37*
G36*
X1180D02*
X1137D01*
Y733D01*
X1180D01*
Y753D01*
D02*
G37*
%LPD*%
D13*
X2300Y835D02*
Y940D01*
X897Y1400D02*
Y1632D01*
X1055Y1390D02*
X1080Y1415D01*
X1025Y1365D02*
X1028Y1362D01*
X975Y300D02*
X1063D01*
X934Y1765D02*
X935Y1764D01*
X897Y1632D02*
X935Y1670D01*
X820Y1605D02*
X823Y1602D01*
X935Y1670D02*
Y1764D01*
X795Y1890D02*
X816Y1869D01*
Y1765D02*
Y1869D01*
X2145Y865D02*
X2209D01*
X2215Y871D01*
X2105Y905D02*
X2145Y865D01*
X2100Y905D02*
X2105D01*
X2153Y927D02*
X2175Y905D01*
X2203Y987D02*
X2215Y975D01*
X2188Y962D02*
X2190Y960D01*
X2105Y950D02*
X2138Y983D01*
X2188Y962D02*
Y987D01*
X2153Y927D02*
Y1049D01*
X2203Y987D02*
Y993D01*
X2175Y1000D02*
X2188Y987D01*
X2201Y995D02*
X2203Y993D01*
X2201Y995D02*
Y1020D01*
X2175Y1000D02*
Y1035D01*
X2245Y820D02*
X2285D01*
X2300Y835D01*
X2215Y871D02*
Y897D01*
X2138Y1067D02*
X2146Y1075D01*
X2175D01*
X2159Y1055D02*
X2175D01*
X2153Y1049D02*
X2159Y1055D01*
X2102Y1095D02*
X2175D01*
X2095Y1087D02*
X2102Y1095D01*
X1930Y1095D02*
Y1185D01*
X2011Y1087D02*
X2095D01*
X2138Y983D02*
Y1067D01*
X2215Y949D02*
Y975D01*
X2010Y1086D02*
X2011Y1087D01*
X2215Y897D02*
X2230Y912D01*
X2215Y949D02*
X2230Y934D01*
Y912D02*
Y934D01*
X490Y480D02*
X610D01*
X605Y235D02*
Y315D01*
X835Y215D02*
Y665D01*
X605Y235D02*
X650Y190D01*
X810D01*
X835Y215D01*
X715Y315D02*
X715Y315D01*
X610Y480D02*
X615Y485D01*
X780Y610D02*
X835Y665D01*
X625Y725D02*
X700D01*
X705Y720D01*
X725Y610D02*
X780D01*
X835Y720D02*
Y725D01*
Y720D02*
X835Y720D01*
Y665D02*
Y720D01*
X835Y725D02*
X868Y757D01*
X870Y755D01*
X868Y757D02*
X880Y770D01*
X885Y645D02*
Y728D01*
X925Y579D02*
X926Y580D01*
X885Y728D02*
X906Y749D01*
X880Y770D02*
X926D01*
X906Y749D02*
X925D01*
X1044Y730D02*
X1075D01*
X926Y580D02*
Y730D01*
X1083Y702D02*
X1085Y700D01*
X995Y560D02*
X1045Y510D01*
X1083Y702D02*
Y722D01*
X995Y560D02*
Y701D01*
X1075Y730D02*
X1083Y722D01*
X1045Y510D02*
X1132D01*
X1110Y705D02*
Y744D01*
Y705D02*
X1125Y690D01*
X1132Y510D02*
X1137Y504D01*
Y300D02*
Y504D01*
Y300D02*
X1248D01*
X1322D02*
X1327Y295D01*
X925Y749D02*
X926Y750D01*
X960Y867D02*
X975Y852D01*
Y819D02*
Y852D01*
X1000Y775D02*
X1005Y770D01*
X960Y867D02*
Y905D01*
X974Y820D02*
X975Y819D01*
X1000Y775D02*
X1015Y790D01*
X1005Y770D02*
X1044D01*
X1015Y790D02*
X1044D01*
X1104Y750D02*
X1110Y744D01*
X1044Y750D02*
X1104D01*
X620Y1890D02*
X795D01*
X500Y1687D02*
Y1770D01*
X620Y1890D01*
X895Y1403D02*
X897Y1400D01*
X1046Y1060D02*
X1056Y1050D01*
X1274D02*
Y1081D01*
X1516Y1145D02*
X1523Y1151D01*
X1524Y1153D01*
D14*
X2978Y1196D02*
D03*
Y794D02*
D03*
X3133Y1196D02*
D03*
Y794D02*
D03*
D15*
X2955Y875D02*
D03*
Y906D02*
D03*
Y926D02*
D03*
Y965D02*
D03*
Y1025D02*
D03*
Y1064D02*
D03*
Y1084D02*
D03*
Y1115D02*
D03*
Y1127D02*
D03*
Y1095D02*
D03*
Y1044D02*
D03*
Y1005D02*
D03*
Y985D02*
D03*
Y946D02*
D03*
Y895D02*
D03*
Y863D02*
D03*
D16*
X2215Y1065D02*
D03*
D17*
X2250Y1036D02*
D03*
D18*
X2201Y1020D02*
D03*
Y1110D02*
D03*
D19*
X2175Y1035D02*
D03*
Y1055D02*
D03*
Y1075D02*
D03*
Y1095D02*
D03*
D20*
X2227Y1065D02*
D03*
D21*
X2250Y1100D02*
D03*
D22*
X1017Y1765D02*
D03*
X985D02*
D03*
X934D02*
D03*
X895D02*
D03*
X875D02*
D03*
X836D02*
D03*
X785D02*
D03*
X753D02*
D03*
X765D02*
D03*
X796D02*
D03*
X816D02*
D03*
X855D02*
D03*
X915D02*
D03*
X954D02*
D03*
X974D02*
D03*
X1005D02*
D03*
D23*
X1086Y1943D02*
D03*
X684D02*
D03*
X1086Y1788D02*
D03*
X684D02*
D03*
D24*
X985Y760D02*
D03*
D25*
X955Y819D02*
D03*
X975D02*
D03*
X995D02*
D03*
X1015D02*
D03*
Y701D02*
D03*
X995D02*
D03*
X975D02*
D03*
X955D02*
D03*
D26*
X1044Y790D02*
D03*
Y770D02*
D03*
Y750D02*
D03*
Y730D02*
D03*
X926D02*
D03*
Y750D02*
D03*
Y770D02*
D03*
Y790D02*
D03*
D27*
X2095Y1087D02*
D03*
Y1013D02*
D03*
D28*
X1250Y1390D02*
D03*
Y1465D02*
D03*
X500Y1687D02*
D03*
Y1613D02*
D03*
D29*
X1322Y300D02*
D03*
X1248D02*
D03*
X1137D02*
D03*
X1063D02*
D03*
X897Y1400D02*
D03*
X823D02*
D03*
D30*
X615Y485D02*
D03*
X715D02*
D03*
D31*
X925Y579D02*
D03*
Y461D02*
D03*
D32*
X1606Y1190D02*
D03*
X1524Y1153D02*
D03*
Y1227D02*
D03*
D33*
X2229Y1325D02*
D03*
X2011D02*
D03*
X1056Y1050D02*
D03*
X1274D02*
D03*
D34*
X715Y315D02*
D03*
X605D02*
D03*
D35*
X2545Y1106D02*
D03*
Y1034D02*
D03*
X2450Y1106D02*
D03*
Y1034D02*
D03*
X2350Y1101D02*
D03*
Y1029D02*
D03*
X2010Y1086D02*
D03*
Y1014D02*
D03*
X1845Y1124D02*
D03*
Y1196D02*
D03*
D36*
X1185Y758D02*
D03*
Y882D02*
D03*
X860Y972D02*
D03*
Y848D02*
D03*
D37*
X960Y1015D02*
D03*
Y905D02*
D03*
D38*
X835Y720D02*
D03*
X705D02*
D03*
D39*
X770Y955D02*
D03*
Y825D02*
D03*
D69*
X823Y1497D02*
Y1602D01*
X1028Y1362D02*
X1055Y1390D01*
X928Y1263D02*
X1028Y1362D01*
X1080Y1415D02*
Y1450D01*
X770Y1210D02*
X823Y1263D01*
X500Y1465D02*
Y1613D01*
Y1465D02*
X565Y1400D01*
X580Y830D02*
Y1160D01*
X630Y1210D01*
X565Y1400D02*
X823D01*
X630Y1210D02*
X770D01*
X1725Y360D02*
Y880D01*
X1845Y1035D02*
Y1124D01*
X1055Y1390D02*
X1250D01*
X823Y1263D02*
X928D01*
X823D02*
Y1400D01*
X1523Y1082D02*
X1725Y880D01*
D70*
X770Y955D02*
Y1050D01*
X1725Y125D02*
Y260D01*
X1327Y295D02*
X1435D01*
X855Y977D02*
Y1050D01*
X823Y1400D02*
Y1497D01*
D71*
X925Y370D02*
Y461D01*
X1329Y690D02*
Y885D01*
D72*
X715Y315D02*
Y485D01*
X1125Y690D02*
X1329D01*
D73*
X1250Y1465D02*
Y1655D01*
X1523Y1082D02*
Y1151D01*
D74*
X1375Y1145D02*
X1516D01*
D75*
X2998Y1109D02*
D03*
Y881D02*
D03*
X999Y1808D02*
D03*
X771D02*
D03*
D76*
X1725Y260D02*
D03*
D77*
Y360D02*
D03*
D78*
X2870Y815D02*
D03*
X2855Y1215D02*
D03*
X1435Y295D02*
D03*
X975Y300D02*
D03*
X925Y370D02*
D03*
X490Y480D02*
D03*
X725Y610D02*
D03*
X625Y725D02*
D03*
X770Y1050D02*
D03*
X855D02*
D03*
X1085Y1695D02*
D03*
X1725Y125D02*
D03*
X1845Y1035D02*
D03*
X710Y1690D02*
D03*
X1250Y1655D02*
D03*
D79*
X885Y645D02*
D03*
X1085Y700D02*
D03*
X1110Y780D02*
D03*
X2190Y960D02*
D03*
X2245Y820D02*
D03*
X2175Y905D02*
D03*
X2040Y915D02*
D03*
X2630Y1305D02*
D03*
X2535Y1385D02*
D03*
X2610Y1495D02*
D03*
X2615Y1390D02*
D03*
X2530Y1495D02*
D03*
X2535Y1160D02*
D03*
X1930Y1095D02*
D03*
X2425Y1160D02*
D03*
X2430Y1230D02*
D03*
X2435Y1305D02*
D03*
X2450Y1495D02*
D03*
Y1395D02*
D03*
X2530Y1240D02*
D03*
X2635Y1235D02*
D03*
X2645Y1150D02*
D03*
X2520Y1300D02*
D03*
M02*
