G04*
G04 #@! TF.GenerationSoftware,Altium Limited,Altium Designer,22.3.1 (43)*
G04*
G04 Layer_Color=16711935*
%FSLAX23Y23*%
%MOIN*%
G70*
G04*
G04 #@! TF.SameCoordinates,09264033-3090-4D32-8FBF-651452AD9D60*
G04*
G04*
G04 #@! TF.FilePolarity,Positive*
G04*
G01*
G75*
%ADD10C,0.008*%
%ADD11C,0.004*%
D10*
X2955Y819D02*
X3245D01*
X2955D02*
Y1171D01*
X3245D01*
Y819D02*
Y1171D01*
X2171Y1114D02*
X2269D01*
X2171Y1016D02*
Y1114D01*
Y1016D02*
X2269D01*
Y1114D01*
X709Y2055D02*
X1061D01*
X709Y1765D02*
Y2055D01*
Y1765D02*
X1061D01*
Y2055D01*
X602Y516D02*
X728D01*
Y454D02*
Y516D01*
X602Y454D02*
X728D01*
X602D02*
Y516D01*
X1980Y1197D02*
Y1414D01*
Y1197D02*
X2220D01*
X2260Y1236D01*
Y1453D01*
X2020D02*
X2260D01*
X1980Y1414D02*
X2020Y1453D01*
X1025Y1139D02*
X1065Y1178D01*
X1305D01*
Y961D02*
Y1178D01*
X1265Y922D02*
X1305Y961D01*
X1025Y922D02*
X1265D01*
X1025D02*
Y1139D01*
X607Y276D02*
X713D01*
X607D02*
Y354D01*
X713D01*
Y276D02*
Y354D01*
X2520Y1031D02*
X2570D01*
Y1109D01*
X2520D02*
X2570D01*
X2520Y1031D02*
Y1109D01*
X2425Y1031D02*
X2475D01*
Y1109D01*
X2425D02*
X2475D01*
X2425Y1031D02*
Y1109D01*
X2325Y1026D02*
X2375D01*
Y1104D01*
X2325D02*
X2375D01*
X2325Y1026D02*
Y1104D01*
X2035Y1011D02*
Y1089D01*
X1985Y1011D02*
X2035D01*
X1985D02*
Y1089D01*
X2035D01*
X1820Y1199D02*
X1870D01*
X1820Y1121D02*
Y1199D01*
Y1121D02*
X1870D01*
Y1199D01*
X707Y689D02*
X833D01*
X707D02*
Y751D01*
X833D01*
Y689D02*
Y751D01*
X739Y827D02*
X801D01*
Y953D01*
X739D02*
X801D01*
X739Y827D02*
Y953D01*
D11*
X926Y799D02*
X946Y819D01*
X926Y701D02*
Y819D01*
Y701D02*
X1044D01*
Y819D01*
X926D02*
X1044D01*
X2120Y1011D02*
Y1089D01*
X2070Y1011D02*
X2120D01*
X2070D02*
Y1089D01*
X2120D01*
X1225Y1388D02*
Y1467D01*
X1275D01*
Y1388D02*
Y1467D01*
X1225Y1388D02*
X1275D01*
X1246Y275D02*
Y325D01*
Y275D02*
X1324D01*
Y325D01*
X1246D02*
X1324D01*
X1061Y275D02*
Y325D01*
Y275D02*
X1139D01*
Y325D01*
X1061D02*
X1139D01*
X956Y458D02*
Y582D01*
X894Y458D02*
X956D01*
X894D02*
Y582D01*
X956D01*
X475Y1611D02*
X525D01*
Y1689D01*
X475D02*
X525D01*
X475Y1611D02*
Y1689D01*
X821Y1375D02*
Y1425D01*
Y1375D02*
X899D01*
Y1425D01*
X821D02*
X899D01*
X1539Y1210D02*
X1577Y1247D01*
X1539Y1133D02*
Y1247D01*
Y1133D02*
X1591D01*
Y1247D01*
X1539D02*
X1591D01*
X1673Y200D02*
X1777D01*
X1673D02*
Y420D01*
X1777D01*
Y200D02*
Y420D01*
X1153Y884D02*
X1217D01*
X1153Y756D02*
Y884D01*
Y756D02*
X1217D01*
Y884D01*
X991Y897D02*
Y1023D01*
X929Y897D02*
X991D01*
X929D02*
Y1023D01*
X991D01*
X828Y846D02*
X892D01*
Y974D01*
X828D02*
X892D01*
X828Y846D02*
Y974D01*
M02*
