G04*
G04 #@! TF.GenerationSoftware,Altium Limited,Altium Designer,22.3.1 (43)*
G04*
G04 Layer_Physical_Order=2*
G04 Layer_Color=16711680*
%FSLAX23Y23*%
%MOIN*%
G70*
G04*
G04 #@! TF.SameCoordinates,09264033-3090-4D32-8FBF-651452AD9D60*
G04*
G04*
G04 #@! TF.FilePolarity,Positive*
G04*
G01*
G75*
%ADD13C,0.010*%
%ADD75C,0.013*%
%ADD76R,0.068X0.068*%
%ADD77C,0.068*%
%ADD78C,0.050*%
%ADD79C,0.020*%
G36*
X3165Y40D02*
Y30D01*
X25D01*
Y1970D01*
X3165D01*
Y40D01*
D02*
G37*
%LPC*%
G36*
X1002Y1825D02*
X995D01*
X989Y1823D01*
X984Y1818D01*
X981Y1811D01*
Y1804D01*
X984Y1797D01*
X989Y1792D01*
X995Y1790D01*
X1002D01*
X1009Y1792D01*
X1014Y1797D01*
X1017Y1804D01*
Y1811D01*
X1014Y1818D01*
X1009Y1823D01*
X1002Y1825D01*
D02*
G37*
G36*
X775D02*
X768D01*
X761Y1823D01*
X756Y1818D01*
X753Y1811D01*
Y1804D01*
X756Y1797D01*
X761Y1792D01*
X768Y1790D01*
X775D01*
X781Y1792D01*
X786Y1797D01*
X789Y1804D01*
Y1811D01*
X786Y1818D01*
X781Y1823D01*
X775Y1825D01*
D02*
G37*
G36*
X3001Y1127D02*
X2994D01*
X2987Y1124D01*
X2982Y1119D01*
X2980Y1112D01*
Y1105D01*
X2982Y1099D01*
X2987Y1094D01*
X2994Y1091D01*
X3001D01*
X3008Y1094D01*
X3013Y1099D01*
X3015Y1105D01*
Y1112D01*
X3013Y1119D01*
X3008Y1124D01*
X3001Y1127D01*
D02*
G37*
G36*
X1933Y1110D02*
X1927D01*
X1922Y1108D01*
X1917Y1103D01*
X1915Y1098D01*
Y1092D01*
X1917Y1087D01*
X1920Y1084D01*
Y1030D01*
X1921Y1026D01*
X1923Y1023D01*
X1993Y953D01*
X1996Y951D01*
X2000Y950D01*
X2179D01*
X2182Y947D01*
X2187Y945D01*
X2193D01*
X2198Y947D01*
X2203Y952D01*
X2205Y957D01*
Y963D01*
X2203Y968D01*
X2198Y973D01*
X2193Y975D01*
X2187D01*
X2182Y973D01*
X2179Y970D01*
X2004D01*
X1940Y1034D01*
Y1084D01*
X1943Y1087D01*
X1945Y1092D01*
Y1098D01*
X1943Y1103D01*
X1938Y1108D01*
X1933Y1110D01*
D02*
G37*
G36*
X3001Y899D02*
X2994D01*
X2987Y896D01*
X2982Y891D01*
X2980Y885D01*
Y878D01*
X2982Y871D01*
X2987Y866D01*
X2994Y863D01*
X3001D01*
X3008Y866D01*
X3013Y871D01*
X3015Y878D01*
Y885D01*
X3013Y891D01*
X3008Y896D01*
X3001Y899D01*
D02*
G37*
G36*
X2178Y920D02*
X2172D01*
X2167Y918D01*
X2162Y913D01*
X2160Y908D01*
Y902D01*
X2162Y897D01*
X2165Y894D01*
Y850D01*
X2166Y846D01*
X2168Y843D01*
X2198Y813D01*
X2201Y811D01*
X2205Y810D01*
X2234D01*
X2237Y807D01*
X2242Y805D01*
X2248D01*
X2253Y807D01*
X2258Y812D01*
X2260Y817D01*
Y823D01*
X2258Y828D01*
X2253Y833D01*
X2248Y835D01*
X2242D01*
X2237Y833D01*
X2234Y830D01*
X2209D01*
X2185Y854D01*
Y894D01*
X2188Y897D01*
X2190Y902D01*
Y908D01*
X2188Y913D01*
X2183Y918D01*
X2178Y920D01*
D02*
G37*
G36*
X874Y665D02*
X545D01*
X541Y664D01*
X538Y662D01*
X483Y607D01*
X481Y604D01*
X480Y600D01*
Y508D01*
X478Y508D01*
X472Y504D01*
X466Y498D01*
X462Y492D01*
X460Y484D01*
Y476D01*
X462Y468D01*
X466Y462D01*
X472Y456D01*
X478Y452D01*
X486Y450D01*
X494D01*
X502Y452D01*
X508Y456D01*
X514Y462D01*
X518Y468D01*
X520Y476D01*
Y484D01*
X518Y492D01*
X514Y498D01*
X508Y504D01*
X502Y508D01*
X500Y508D01*
Y596D01*
X549Y645D01*
X720D01*
X720Y640D01*
X713Y638D01*
X707Y634D01*
X701Y628D01*
X697Y622D01*
X695Y614D01*
Y606D01*
X697Y598D01*
X701Y592D01*
X707Y586D01*
X713Y582D01*
X721Y580D01*
X729D01*
X737Y582D01*
X743Y586D01*
X749Y592D01*
X753Y598D01*
X753Y600D01*
X771D01*
X775Y601D01*
X775Y601D01*
X795D01*
X825Y571D01*
Y350D01*
X826Y346D01*
X828Y343D01*
X878Y293D01*
X881Y291D01*
X885Y290D01*
X947D01*
X947Y288D01*
X951Y282D01*
X957Y276D01*
X963Y272D01*
X971Y270D01*
X979D01*
X987Y272D01*
X993Y276D01*
X999Y282D01*
X1003Y288D01*
X1005Y296D01*
Y304D01*
X1003Y312D01*
X999Y318D01*
X993Y324D01*
X987Y328D01*
X979Y330D01*
X971D01*
X963Y328D01*
X957Y324D01*
X951Y318D01*
X947Y312D01*
X947Y310D01*
X889D01*
X845Y354D01*
Y575D01*
X844Y579D01*
X842Y582D01*
X806Y618D01*
X803Y620D01*
X799Y621D01*
X772D01*
X768Y620D01*
X768Y620D01*
X753D01*
X753Y622D01*
X749Y628D01*
X743Y634D01*
X737Y638D01*
X730Y640D01*
X730Y645D01*
X870D01*
X870Y645D01*
Y642D01*
X872Y637D01*
X877Y632D01*
X882Y630D01*
X888D01*
X893Y632D01*
X898Y637D01*
X900Y642D01*
Y648D01*
X898Y653D01*
X893Y658D01*
X888Y660D01*
X884D01*
X881Y662D01*
X878Y664D01*
X874Y665D01*
D02*
G37*
G36*
X1730Y399D02*
X1720D01*
X1710Y396D01*
X1701Y391D01*
X1694Y384D01*
X1689Y375D01*
X1686Y365D01*
Y355D01*
X1689Y345D01*
X1694Y336D01*
X1701Y329D01*
X1710Y324D01*
X1720Y321D01*
X1730D01*
X1740Y324D01*
X1749Y329D01*
X1756Y336D01*
X1761Y345D01*
X1764Y355D01*
Y365D01*
X1761Y375D01*
X1756Y384D01*
X1749Y391D01*
X1740Y396D01*
X1730Y399D01*
D02*
G37*
%LPD*%
D13*
X885Y300D02*
X975D01*
X884Y645D02*
X885D01*
X490Y480D02*
Y600D01*
X799Y611D02*
X835Y575D01*
X725Y610D02*
X771D01*
X835Y350D02*
Y575D01*
Y350D02*
X885Y300D01*
X771Y610D02*
X772Y611D01*
X799D01*
X490Y600D02*
X545Y655D01*
X874D02*
X884Y645D01*
X545Y655D02*
X874D01*
X1930Y1030D02*
Y1095D01*
Y1030D02*
X2000Y960D01*
X2190D01*
X2175Y850D02*
Y905D01*
Y850D02*
X2205Y820D01*
X2245D01*
D75*
X2998Y1109D02*
D03*
Y881D02*
D03*
X999Y1808D02*
D03*
X771D02*
D03*
D76*
X1725Y260D02*
D03*
D77*
Y360D02*
D03*
D78*
X2870Y815D02*
D03*
X2855Y1215D02*
D03*
X1435Y295D02*
D03*
X975Y300D02*
D03*
X925Y370D02*
D03*
X490Y480D02*
D03*
X725Y610D02*
D03*
X625Y725D02*
D03*
X770Y1050D02*
D03*
X855D02*
D03*
X1085Y1695D02*
D03*
X1725Y125D02*
D03*
X1845Y1035D02*
D03*
X710Y1690D02*
D03*
X1250Y1655D02*
D03*
D79*
X885Y645D02*
D03*
X1085Y700D02*
D03*
X1110Y780D02*
D03*
X2190Y960D02*
D03*
X2245Y820D02*
D03*
X2175Y905D02*
D03*
X2040Y915D02*
D03*
X2630Y1305D02*
D03*
X2535Y1385D02*
D03*
X2610Y1495D02*
D03*
X2615Y1390D02*
D03*
X2530Y1495D02*
D03*
X2535Y1160D02*
D03*
X1930Y1095D02*
D03*
X2425Y1160D02*
D03*
X2430Y1230D02*
D03*
X2435Y1305D02*
D03*
X2450Y1495D02*
D03*
Y1395D02*
D03*
X2530Y1240D02*
D03*
X2635Y1235D02*
D03*
X2645Y1150D02*
D03*
X2520Y1300D02*
D03*
M02*
