G04*
G04 #@! TF.GenerationSoftware,Altium Limited,Altium Designer,22.3.1 (43)*
G04*
G04 Layer_Color=65535*
%FSLAX23Y23*%
%MOIN*%
G70*
G04*
G04 #@! TF.SameCoordinates,09264033-3090-4D32-8FBF-651452AD9D60*
G04*
G04*
G04 #@! TF.FilePolarity,Positive*
G04*
G01*
G75*
%ADD10C,0.008*%
%ADD11C,0.004*%
%ADD12C,0.010*%
%ADD13C,0.010*%
D10*
X2915Y861D02*
G03*
X2915Y865I0J2D01*
G01*
D02*
G03*
X2915Y861I0J-2D01*
G01*
D02*
G03*
X2915Y865I0J2D01*
G01*
X1019Y1725D02*
G03*
X1015Y1725I-2J0D01*
G01*
D02*
G03*
X1019Y1725I2J0D01*
G01*
D02*
G03*
X1015Y1725I-2J0D01*
G01*
X573Y485D02*
G03*
X573Y485I-2J0D01*
G01*
X1962Y1333D02*
G03*
X1962Y1333I-5J0D01*
G01*
X1007Y1058D02*
G03*
X1007Y1058I-5J0D01*
G01*
X2547Y988D02*
G03*
X2547Y988I-2J0D01*
G01*
X2452D02*
G03*
X2452Y988I-2J0D01*
G01*
X2352Y983D02*
G03*
X2352Y983I-2J0D01*
G01*
X2012Y1132D02*
G03*
X2012Y1132I-2J0D01*
G01*
X1847Y1242D02*
G03*
X1847Y1242I-2J0D01*
G01*
X890Y720D02*
G03*
X890Y720I-2J0D01*
G01*
X772Y772D02*
G03*
X772Y772I-2J0D01*
G01*
X2074Y1050D02*
X2116D01*
X1229Y1428D02*
X1271D01*
X1285Y279D02*
Y321D01*
X1100Y279D02*
Y321D01*
X897Y520D02*
X953D01*
X479Y1650D02*
X521D01*
X860Y1379D02*
Y1421D01*
X1498Y1249D02*
X1549D01*
X1563Y1133D02*
Y1247D01*
Y1133D02*
X1567D01*
Y1247D01*
X1563D02*
X1567D01*
X1980Y1197D02*
X2220D01*
X2260Y1236D01*
X2020Y1453D02*
X2260D01*
X1980Y1414D02*
X2020Y1453D01*
X1025Y1139D02*
X1065Y1178D01*
X1305D01*
X1265Y922D02*
X1305Y961D01*
X1025Y922D02*
X1265D01*
X1725Y200D02*
X1777D01*
Y420D01*
X1673D02*
X1777D01*
X1673Y260D02*
Y420D01*
X1156Y820D02*
X1214D01*
X932Y960D02*
X988D01*
X831Y910D02*
X889D01*
D11*
X2254Y1132D02*
G03*
X2250Y1132I-2J0D01*
G01*
D02*
G03*
X2254Y1132I2J0D01*
G01*
X762Y315D02*
G03*
X758Y315I-2J0D01*
G01*
D02*
G03*
X762Y315I2J0D01*
G01*
X3031Y1171D02*
X3070D01*
X3031D02*
X3070D01*
X3189D02*
X3245D01*
X3189D02*
X3245D01*
Y819D02*
Y1171D01*
Y819D02*
Y1171D01*
X3198Y819D02*
X3245D01*
X3198D02*
X3245D01*
X3041D02*
X3070D01*
Y818D02*
Y819D01*
X3041Y818D02*
X3070D01*
X3041D02*
Y819D01*
X2171Y1016D02*
X2188D01*
X2171D02*
Y1026D01*
Y1104D02*
Y1114D01*
X2188D01*
X2269Y1016D02*
Y1114D01*
X1061Y1851D02*
X1062D01*
Y1880D01*
X1061D02*
X1062D01*
X1061Y1851D02*
Y1880D01*
Y2008D02*
Y2055D01*
Y2008D02*
Y2055D01*
X709D02*
X1061D01*
X709D02*
X1061D01*
X709Y1999D02*
Y2055D01*
Y1999D02*
Y2055D01*
Y1841D02*
Y1880D01*
Y1841D02*
Y1880D01*
X607Y276D02*
X713D01*
X607Y354D02*
X713D01*
D12*
X915Y819D02*
G03*
X915Y819I-5J0D01*
G01*
D13*
X2922Y1370D02*
X2902D01*
X2912D01*
Y1320D01*
X2902Y1310D01*
X2892D01*
X2882Y1320D01*
X2982Y1310D02*
X2942D01*
X2982Y1350D01*
Y1360D01*
X2972Y1370D01*
X2952D01*
X2942Y1360D01*
X650Y2186D02*
X630D01*
X640D01*
Y2136D01*
X630Y2126D01*
X620D01*
X610Y2136D01*
X670Y2126D02*
X690D01*
X680D01*
Y2186D01*
X670Y2176D01*
X2210Y775D02*
Y750D01*
X2215Y745D01*
X2225D01*
X2230Y750D01*
Y775D01*
X2260Y745D02*
X2240D01*
X2260Y765D01*
Y770D01*
X2255Y775D01*
X2245D01*
X2240Y770D01*
X1050Y660D02*
Y635D01*
X1055Y630D01*
X1065D01*
X1070Y635D01*
Y660D01*
X1080Y630D02*
X1090D01*
X1085D01*
Y660D01*
X1080Y655D01*
X2085Y760D02*
Y790D01*
X2100D01*
X2105Y785D01*
Y775D01*
X2100Y770D01*
X2085D01*
X2095D02*
X2105Y760D01*
X2115Y785D02*
X2120Y790D01*
X2130D01*
X2135Y785D01*
Y780D01*
X2130Y775D01*
X2135Y770D01*
Y765D01*
X2130Y760D01*
X2120D01*
X2115Y765D01*
Y770D01*
X2120Y775D01*
X2115Y780D01*
Y785D01*
X2120Y775D02*
X2130D01*
X1325Y1460D02*
Y1490D01*
X1340D01*
X1345Y1485D01*
Y1475D01*
X1340Y1470D01*
X1325D01*
X1335D02*
X1345Y1460D01*
X1355Y1490D02*
X1375D01*
Y1485D01*
X1355Y1465D01*
Y1460D01*
X1265Y365D02*
X1235D01*
Y380D01*
X1240Y385D01*
X1250D01*
X1255Y380D01*
Y365D01*
Y375D02*
X1265Y385D01*
X1235Y415D02*
X1240Y405D01*
X1250Y395D01*
X1260D01*
X1265Y400D01*
Y410D01*
X1260Y415D01*
X1255D01*
X1250Y410D01*
Y395D01*
X1095Y170D02*
X1065D01*
Y185D01*
X1070Y190D01*
X1080D01*
X1085Y185D01*
Y170D01*
Y180D02*
X1095Y190D01*
X1065Y220D02*
Y200D01*
X1080D01*
X1075Y210D01*
Y215D01*
X1080Y220D01*
X1090D01*
X1095Y215D01*
Y205D01*
X1090Y200D01*
X545Y587D02*
Y617D01*
X560D01*
X565Y612D01*
Y602D01*
X560Y597D01*
X545D01*
X555D02*
X565Y587D01*
X590D02*
Y617D01*
X575Y602D01*
X595D01*
X995Y450D02*
Y480D01*
X1010D01*
X1015Y475D01*
Y465D01*
X1010Y460D01*
X995D01*
X1005D02*
X1015Y450D01*
X1025Y475D02*
X1030Y480D01*
X1040D01*
X1045Y475D01*
Y470D01*
X1040Y465D01*
X1035D01*
X1040D01*
X1045Y460D01*
Y455D01*
X1040Y450D01*
X1030D01*
X1025Y455D01*
X550Y1525D02*
Y1555D01*
X565D01*
X570Y1550D01*
Y1540D01*
X565Y1535D01*
X550D01*
X560D02*
X570Y1525D01*
X600D02*
X580D01*
X600Y1545D01*
Y1550D01*
X595Y1555D01*
X585D01*
X580Y1550D01*
X685Y1295D02*
Y1325D01*
X700D01*
X705Y1320D01*
Y1310D01*
X700Y1305D01*
X685D01*
X695D02*
X705Y1295D01*
X715D02*
X725D01*
X720D01*
Y1325D01*
X715Y1320D01*
X1517Y1296D02*
Y1316D01*
X1512Y1321D01*
X1502D01*
X1497Y1316D01*
Y1296D01*
X1502Y1291D01*
X1512D01*
X1507Y1301D02*
X1517Y1291D01*
X1512D02*
X1517Y1296D01*
X1527Y1291D02*
X1537D01*
X1532D01*
Y1321D01*
X1527Y1316D01*
X2105Y1565D02*
Y1535D01*
X2125D01*
X2155D02*
X2135D01*
X2155Y1555D01*
Y1560D01*
X2150Y1565D01*
X2140D01*
X2135Y1560D01*
X1130Y1265D02*
Y1235D01*
X1150D01*
X1160D02*
X1170D01*
X1165D01*
Y1265D01*
X1160Y1260D01*
X1880Y435D02*
X1860D01*
X1870D01*
Y385D01*
X1860Y375D01*
X1850D01*
X1840Y385D01*
X1900Y425D02*
X1910Y435D01*
X1930D01*
X1940Y425D01*
Y415D01*
X1930Y405D01*
X1920D01*
X1930D01*
X1940Y395D01*
Y385D01*
X1930Y375D01*
X1910D01*
X1900Y385D01*
X485Y340D02*
Y310D01*
X500D01*
X505Y315D01*
Y335D01*
X500Y340D01*
X485D01*
X515Y310D02*
X525D01*
X520D01*
Y340D01*
X515Y335D01*
X2543Y805D02*
X2538Y810D01*
X2528D01*
X2523Y805D01*
Y785D01*
X2528Y780D01*
X2538D01*
X2543Y785D01*
X2553Y780D02*
X2562D01*
X2558D01*
Y810D01*
X2553Y805D01*
X2577D02*
X2582Y810D01*
X2592D01*
X2597Y805D01*
Y785D01*
X2592Y780D01*
X2582D01*
X2577Y785D01*
Y805D01*
X2435Y810D02*
X2430Y815D01*
X2420D01*
X2415Y810D01*
Y790D01*
X2420Y785D01*
X2430D01*
X2435Y790D01*
X2445D02*
X2450Y785D01*
X2460D01*
X2465Y790D01*
Y810D01*
X2460Y815D01*
X2450D01*
X2445Y810D01*
Y805D01*
X2450Y800D01*
X2465D01*
X2345Y785D02*
X2340Y790D01*
X2330D01*
X2325Y785D01*
Y765D01*
X2330Y760D01*
X2340D01*
X2345Y765D01*
X2355Y785D02*
X2360Y790D01*
X2370D01*
X2375Y785D01*
Y780D01*
X2370Y775D01*
X2375Y770D01*
Y765D01*
X2370Y760D01*
X2360D01*
X2355Y765D01*
Y770D01*
X2360Y775D01*
X2355Y780D01*
Y785D01*
X2360Y775D02*
X2370D01*
X2010Y785D02*
X2005Y790D01*
X1995D01*
X1990Y785D01*
Y765D01*
X1995Y760D01*
X2005D01*
X2010Y765D01*
X2020Y790D02*
X2040D01*
Y785D01*
X2020Y765D01*
Y760D01*
X1850Y960D02*
X1845Y965D01*
X1835D01*
X1830Y960D01*
Y940D01*
X1835Y935D01*
X1845D01*
X1850Y940D01*
X1880Y965D02*
X1870Y960D01*
X1860Y950D01*
Y940D01*
X1865Y935D01*
X1875D01*
X1880Y940D01*
Y945D01*
X1875Y950D01*
X1860D01*
X1185Y635D02*
X1180Y640D01*
X1170D01*
X1165Y635D01*
Y615D01*
X1170Y610D01*
X1180D01*
X1185Y615D01*
X1215Y640D02*
X1195D01*
Y625D01*
X1205Y630D01*
X1210D01*
X1215Y625D01*
Y615D01*
X1210Y610D01*
X1200D01*
X1195Y615D01*
X1040Y1260D02*
X1035Y1265D01*
X1025D01*
X1020Y1260D01*
Y1240D01*
X1025Y1235D01*
X1035D01*
X1040Y1240D01*
X1065Y1235D02*
Y1265D01*
X1050Y1250D01*
X1070D01*
X520Y735D02*
X515Y740D01*
X505D01*
X500Y735D01*
Y715D01*
X505Y710D01*
X515D01*
X520Y715D01*
X530Y735D02*
X535Y740D01*
X545D01*
X550Y735D01*
Y730D01*
X545Y725D01*
X540D01*
X545D01*
X550Y720D01*
Y715D01*
X545Y710D01*
X535D01*
X530Y715D01*
X845Y1140D02*
X840Y1145D01*
X830D01*
X825Y1140D01*
Y1120D01*
X830Y1115D01*
X840D01*
X845Y1120D01*
X875Y1115D02*
X855D01*
X875Y1135D01*
Y1140D01*
X870Y1145D01*
X860D01*
X855Y1140D01*
X700Y1105D02*
X695Y1110D01*
X685D01*
X680Y1105D01*
Y1085D01*
X685Y1080D01*
X695D01*
X700Y1085D01*
X710Y1080D02*
X720D01*
X715D01*
Y1110D01*
X710Y1105D01*
M02*
