G04*
G04 #@! TF.GenerationSoftware,Altium Limited,Altium Designer,22.3.1 (43)*
G04*
G04 Layer_Color=8421504*
%FSLAX23Y23*%
%MOIN*%
G70*
G04*
G04 #@! TF.SameCoordinates,09264033-3090-4D32-8FBF-651452AD9D60*
G04*
G04*
G04 #@! TF.FilePolarity,Positive*
G04*
G01*
G75*
%ADD14R,0.079X0.086*%
%ADD15R,0.045X0.012*%
%ADD16R,0.006X0.038*%
%ADD17R,0.017X0.063*%
%ADD18R,0.010X0.024*%
%ADD19R,0.024X0.010*%
%ADD20R,0.017X0.120*%
%ADD21R,0.017X0.049*%
%ADD22R,0.012X0.045*%
%ADD23R,0.086X0.079*%
%ADD24R,0.069X0.069*%
%ADD25R,0.012X0.031*%
%ADD26R,0.031X0.012*%
%ADD27R,0.057X0.039*%
%ADD28R,0.055X0.039*%
%ADD29R,0.039X0.055*%
%ADD30R,0.041X0.071*%
%ADD31R,0.071X0.041*%
%ADD32R,0.051X0.024*%
%ADD33R,0.073X0.134*%
%ADD34R,0.055X0.059*%
%ADD35R,0.041X0.041*%
%ADD36R,0.076X0.030*%
%ADD37R,0.072X0.040*%
%ADD38R,0.043X0.053*%
%ADD39R,0.053X0.043*%
D14*
X2978Y1196D02*
D03*
Y794D02*
D03*
X3133Y1196D02*
D03*
Y794D02*
D03*
D15*
X2955Y875D02*
D03*
Y906D02*
D03*
Y926D02*
D03*
Y965D02*
D03*
Y1025D02*
D03*
Y1064D02*
D03*
Y1084D02*
D03*
Y1115D02*
D03*
Y1127D02*
D03*
Y1095D02*
D03*
Y1044D02*
D03*
Y1005D02*
D03*
Y985D02*
D03*
Y946D02*
D03*
Y895D02*
D03*
Y863D02*
D03*
D16*
X2215Y1065D02*
D03*
D17*
X2250Y1036D02*
D03*
D18*
X2201Y1020D02*
D03*
Y1110D02*
D03*
D19*
X2175Y1035D02*
D03*
Y1055D02*
D03*
Y1075D02*
D03*
Y1095D02*
D03*
D20*
X2227Y1065D02*
D03*
D21*
X2250Y1100D02*
D03*
D22*
X1017Y1765D02*
D03*
X985D02*
D03*
X934D02*
D03*
X895D02*
D03*
X875D02*
D03*
X836D02*
D03*
X785D02*
D03*
X753D02*
D03*
X765D02*
D03*
X796D02*
D03*
X816D02*
D03*
X855D02*
D03*
X915D02*
D03*
X954D02*
D03*
X974D02*
D03*
X1005D02*
D03*
D23*
X1086Y1943D02*
D03*
X684D02*
D03*
X1086Y1788D02*
D03*
X684D02*
D03*
D24*
X985Y760D02*
D03*
D25*
X955Y819D02*
D03*
X975D02*
D03*
X995D02*
D03*
X1015D02*
D03*
Y701D02*
D03*
X995D02*
D03*
X975D02*
D03*
X955D02*
D03*
D26*
X1044Y790D02*
D03*
Y770D02*
D03*
Y750D02*
D03*
Y730D02*
D03*
X926D02*
D03*
Y750D02*
D03*
Y770D02*
D03*
Y790D02*
D03*
D27*
X2095Y1087D02*
D03*
Y1013D02*
D03*
D28*
X1250Y1390D02*
D03*
Y1465D02*
D03*
X500Y1687D02*
D03*
Y1613D02*
D03*
D29*
X1322Y300D02*
D03*
X1248D02*
D03*
X1137D02*
D03*
X1063D02*
D03*
X897Y1400D02*
D03*
X823D02*
D03*
D30*
X615Y485D02*
D03*
X715D02*
D03*
D31*
X925Y579D02*
D03*
Y461D02*
D03*
D32*
X1606Y1190D02*
D03*
X1524Y1153D02*
D03*
Y1227D02*
D03*
D33*
X2229Y1325D02*
D03*
X2011D02*
D03*
X1056Y1050D02*
D03*
X1274D02*
D03*
D34*
X715Y315D02*
D03*
X605D02*
D03*
D35*
X2545Y1106D02*
D03*
Y1034D02*
D03*
X2450Y1106D02*
D03*
Y1034D02*
D03*
X2350Y1101D02*
D03*
Y1029D02*
D03*
X2010Y1086D02*
D03*
Y1014D02*
D03*
X1845Y1124D02*
D03*
Y1196D02*
D03*
D36*
X1185Y758D02*
D03*
Y882D02*
D03*
X860Y972D02*
D03*
Y848D02*
D03*
D37*
X960Y1015D02*
D03*
Y905D02*
D03*
D38*
X835Y720D02*
D03*
X705D02*
D03*
D39*
X770Y955D02*
D03*
Y825D02*
D03*
M02*
