M48
;Layer_Color=9474304
;FILE_FORMAT=2:3
INCH,TZ
;TYPE=PLATED
T1F00S00C0.012
T2F00S00C0.028
T3F00S00C0.045
;TYPE=NON_PLATED
T4F00S00C0.026
%
T01
X885Y645
X1085Y700
X1110Y780
X2040Y915
X2175Y905
X2190Y960
X2245Y820
X2425Y1160
X2430Y1230
X2435Y1305
X2520Y1300
X2530Y1240
X2535Y1160
X2645Y1150
X2635Y1235
X2630Y1305
X2615Y1390
X2535Y1385
X2450Y1395
Y1495
X2530
X2610
X1930Y1095
T02
X490Y480
X725Y610
X625Y725
X770Y1050
X855
X925Y370
X975Y300
X1435Y295
X1725Y125
X1845Y1035
X2855Y1215
X2870Y815
X1250Y1655
X1085Y1695
X710Y1690
T03
X1725Y260
Y360
T04
X2998Y881
Y1109
X999Y1808
X771
M30
